<?xml version="1.0" standalone="no"?>
<!DOCTYPE svg PUBLIC "-//W3C//DTD SVG 20010904//EN"
 "http://www.w3.org/TR/2001/REC-SVG-20010904/DTD/svg10.dtd">
<svg version="1.0" xmlns="http://www.w3.org/2000/svg"
 width="2012.000000pt" height="2012.000000pt" viewBox="0 0 2012.000000 2012.000000"
 preserveAspectRatio="xMidYMid meet">
<metadata>
Created by potrace 1.14, written by Peter Selinger 2001-2017
</metadata>
<g transform="translate(0.000000,2012.000000) scale(0.100000,-0.100000)"
fill="#000000" stroke="none">
<path d="M7420 14533 c-239 -14 -436 -26 -437 -27 -1 -1 -21 -184 -43 -406
-23 -223 -43 -406 -45 -408 -1 -2 -72 -18 -156 -37 -85 -19 -212 -53 -284 -75
-71 -23 -137 -43 -145 -45 -10 -3 -117 111 -309 326 -172 194 -298 328 -306
325 -42 -16 -969 -629 -967 -639 2 -7 78 -177 169 -379 91 -202 163 -371 161
-376 -1 -4 -52 -54 -113 -110 -95 -87 -247 -249 -287 -305 -12 -16 -41 -8
-440 123 -234 77 -431 140 -436 140 -6 0 -77 -129 -158 -287 -81 -159 -200
-392 -265 -519 l-119 -232 337 -242 c186 -133 342 -246 347 -250 5 -5 -10 -72
-33 -154 -23 -80 -54 -206 -70 -281 -16 -75 -31 -139 -34 -141 -3 -3 -206 -47
-452 -99 -246 -52 -450 -97 -453 -100 -6 -6 44 -1042 54 -1122 6 -50 -45 -40
444 -88 195 -19 369 -37 386 -40 30 -5 30 -6 58 -133 15 -70 48 -196 72 -281
25 -85 43 -158 42 -162 -2 -3 -138 -127 -303 -274 -165 -147 -319 -285 -342
-306 l-43 -39 268 -413 c148 -226 290 -446 317 -487 27 -41 50 -77 51 -78 2
-2 174 73 383 167 209 94 382 171 384 171 2 0 100 -96 218 -213 l214 -214
-141 -429 c-78 -236 -139 -432 -135 -435 3 -4 237 -125 520 -269 488 -249 515
-262 528 -244 8 11 116 160 240 331 124 172 228 315 232 317 4 3 68 -15 142
-38 127 -42 279 -81 399 -105 l55 -11 89 -433 c49 -237 92 -435 95 -439 4 -4
838 35 858 41 2 1 1 16 0 34 -2 17 0 49 4 70 4 22 2 37 -4 37 -5 0 -5 5 2 13
6 8 8 17 5 20 -4 3 -6 97 -5 209 1 112 2 217 1 233 -5 91 -5 117 0 120 5 3 5
60 0 60 -8 0 -4 62 4 67 7 5 7 8 -2 8 -8 0 -10 5 -6 12 4 6 6 32 4 57 -1 25
-2 57 -2 71 1 14 1 45 1 70 -1 75 -1 93 0 135 2 50 3 469 1 510 -1 17 -3 49
-4 73 -1 23 2 42 5 42 4 0 5 12 2 28 -2 15 -5 44 -6 65 l-1 37 -90 -7 c-153
-13 -470 -7 -601 11 -465 66 -888 240 -1253 516 -603 456 -974 1092 -1088
1865 -27 183 -25 562 5 754 96 623 366 1152 812 1587 140 136 238 216 384 314
370 248 782 394 1240 441 120 12 525 7 572 -7 17 -5 22 -2 22 12 0 11 0 39 0
64 0 25 0 116 -2 203 -1 99 2 157 8 157 6 0 6 3 0 8 -6 4 -10 16 -9 27 4 41 4
111 1 145 -2 19 2 38 7 42 7 5 7 8 -2 8 -9 0 -10 6 -5 18 8 16 9 32 3 57 -7
34 -3 176 5 179 6 3 6 5 -1 5 -10 1 -10 58 0 104 2 9 1 17 -2 17 -6 0 -7 78
-2 105 1 6 1 26 1 45 -1 19 -2 53 -2 75 1 22 0 60 0 85 -1 25 -1 57 0 73 0 39
0 112 0 150 -1 17 0 46 0 62 1 17 1 105 1 198 l0 167 -58 -1 c-31 -1 -253 -13
-492 -26z"/>
<path d="M10850 14363 c-27 -10 -51 -37 -66 -72 -11 -27 -14 -131 -14 -583 0
-605 -1 -600 62 -638 68 -41 160 -11 185 60 9 25 12 186 12 583 1 604 2 599
-61 637 -31 19 -85 25 -118 13z"/>
<path d="M13774 14356 c-19 -8 -38 -29 -50 -53 -19 -37 -20 -64 -19 -589 1
-517 2 -551 19 -580 38 -63 46 -64 462 -61 l376 2 29 33 c45 50 37 123 -18
159 -24 16 -60 19 -317 23 l-291 5 0 485 c-1 438 -3 488 -18 520 -31 64 -102
87 -173 56z"/>
<path d="M16291 14354 c-137 -29 -236 -97 -288 -197 -23 -45 -27 -64 -28 -142
0 -110 21 -163 91 -231 68 -65 152 -100 365 -154 64 -16 136 -38 160 -49 104
-44 142 -138 95 -230 -18 -34 -41 -53 -96 -82 -64 -33 -215 -34 -276 -2 -54
29 -89 72 -129 158 -18 38 -41 78 -52 88 -27 24 -86 32 -120 18 -139 -59 -42
-325 152 -420 159 -79 410 -80 571 -4 62 29 143 98 172 146 70 115 72 287 5
392 -65 100 -162 148 -457 225 -191 50 -241 85 -241 170 0 56 24 88 90 123 48
25 171 33 231 14 47 -14 103 -68 133 -128 38 -75 64 -100 109 -106 63 -8 117
37 129 109 12 77 -68 198 -167 252 -112 61 -299 82 -449 50z"/>
<path d="M9533 14333 c-65 -32 -65 -36 -65 -629 0 -292 3 -545 6 -561 17 -74
113 -114 186 -76 63 33 68 56 69 341 l1 212 60 0 c32 0 83 -5 112 -11 79 -17
140 -85 273 -308 61 -101 121 -194 135 -208 48 -48 109 -56 170 -22 64 36 67
83 14 198 -65 142 -194 311 -273 359 l-31 19 65 22 c183 60 265 174 253 354
-10 162 -112 279 -271 313 -44 9 -153 13 -367 13 -257 -1 -310 -3 -337 -16z
m571 -184 c87 -16 132 -66 142 -157 10 -83 -46 -156 -137 -179 -13 -3 -104 -8
-201 -10 l-178 -5 0 181 0 181 164 -1 c90 -1 185 -5 210 -10z"/>
<path d="M11407 14340 c-39 -12 -58 -29 -74 -68 -21 -51 -20 -1096 1 -1147 29
-69 117 -95 183 -54 56 35 63 66 63 295 l0 204 163 1 c89 0 169 2 177 4 8 1
35 6 59 10 208 32 326 184 316 409 -8 181 -120 312 -292 344 -67 12 -559 14
-596 2z m529 -211 c64 -31 95 -86 95 -164 0 -86 -29 -138 -98 -172 -52 -25
-68 -27 -205 -31 l-148 -4 0 202 0 203 154 -5 c137 -4 159 -7 202 -29z"/>
<path d="M12590 14333 c-72 -36 -70 -25 -70 -632 0 -598 0 -593 62 -631 60
-36 135 -20 174 37 17 25 19 52 22 246 l3 217 157 1 c195 1 228 4 305 30 105
35 154 73 205 158 54 91 63 254 21 368 -32 83 -113 162 -199 193 -62 22 -80
24 -355 27 -261 3 -293 1 -325 -14z m545 -203 c87 -43 122 -153 81 -255 -33
-81 -113 -111 -308 -114 l-128 -2 0 202 0 201 153 -4 c137 -3 157 -6 202 -28z"/>
<path d="M14871 14337 c-19 -7 -44 -25 -55 -40 -21 -28 -21 -38 -24 -572 -3
-602 -3 -596 60 -635 32 -19 48 -20 450 -17 l418 2 27 28 c39 38 39 106 0 145
l-27 27 -335 3 -335 3 2 177 3 177 234 2 c313 2 342 4 373 19 63 32 54 139
-13 163 -21 7 -134 11 -315 11 l-284 0 0 160 0 159 325 3 325 3 27 27 c38 38
38 98 0 136 l-27 27 -398 2 c-290 2 -406 -1 -431 -10z"/>
<path d="M16129 11616 c-2 -2 -39 -7 -81 -10 -217 -16 -455 -96 -612 -204
-154 -106 -271 -262 -331 -439 -47 -141 -53 -319 -16 -463 22 -84 89 -226 124
-262 7 -7 20 -23 28 -35 39 -57 124 -144 234 -241 66 -57 136 -119 155 -136
19 -17 69 -60 110 -96 41 -36 77 -67 80 -70 3 -3 55 -47 115 -99 228 -195 287
-273 287 -377 1 -162 -173 -248 -482 -239 -74 2 -151 6 -170 10 -194 33 -362
79 -538 149 l-114 45 6 -39 c10 -73 34 -320 41 -425 2 -33 6 -89 9 -125 3 -36
8 -101 11 -145 3 -44 8 -81 10 -83 6 -6 267 -50 400 -67 66 -8 138 -17 160
-20 202 -27 689 -27 767 0 7 2 31 7 52 10 118 17 323 87 411 140 22 14 54 32
70 41 81 45 194 156 261 255 103 155 148 307 147 499 -1 218 -91 394 -318 624
-82 82 -142 133 -325 279 -8 7 -78 61 -155 122 -169 133 -290 252 -329 324
-56 104 -33 205 59 268 101 68 211 94 385 88 210 -6 423 -54 661 -150 13 -5
16 -1 14 17 -1 13 -6 55 -9 93 -4 39 -9 86 -11 105 -5 47 -14 143 -20 205 -6
78 -17 265 -17 313 -1 35 -5 45 -22 52 -20 8 -153 32 -261 46 -27 3 -58 8 -67
9 -9 2 -52 7 -95 10 -43 4 -87 9 -98 12 -26 6 -520 15 -526 9z"/>
<path d="M6189 11551 c-3 -18 -7 -69 -14 -181 -15 -240 -31 -478 -40 -590 -2
-30 -7 -102 -11 -160 -3 -58 -7 -121 -9 -140 -2 -19 -6 -73 -10 -120 -3 -47
-8 -101 -10 -120 -2 -19 -7 -69 -10 -110 -4 -41 -8 -91 -10 -110 -2 -19 -6
-73 -10 -120 -3 -47 -8 -101 -10 -120 -3 -19 -7 -66 -10 -105 -6 -74 -11 -139
-20 -220 -2 -27 -7 -81 -10 -120 -3 -38 -8 -88 -10 -110 -2 -22 -7 -76 -10
-120 -3 -44 -8 -96 -10 -115 -2 -19 -7 -69 -10 -110 -6 -78 -14 -157 -20 -200
-5 -34 -13 -95 -20 -155 -3 -27 -8 -66 -10 -85 -3 -19 -7 -62 -11 -96 l-6 -61
426 0 c425 0 426 0 427 21 0 12 2 84 4 161 3 127 6 194 20 425 3 41 7 118 10
170 3 52 7 129 10 170 2 41 7 122 10 180 3 58 8 130 10 160 2 30 7 107 10 170
9 170 14 249 20 304 3 26 8 78 11 115 2 36 6 82 8 101 3 19 8 71 12 115 4 44
8 91 10 105 1 14 2 37 3 53 2 56 18 24 35 -70 10 -54 27 -134 38 -178 11 -44
21 -87 23 -95 2 -8 22 -91 45 -185 23 -93 43 -177 45 -185 3 -14 31 -125 40
-160 11 -43 39 -165 55 -240 10 -47 39 -177 65 -290 25 -113 49 -218 51 -235
3 -16 14 -64 24 -105 10 -41 40 -172 66 -291 l48 -216 445 1 445 1 228 690
c257 778 267 809 373 1140 43 132 97 299 120 370 l43 130 2 -160 c2 -294 -11
-808 -35 -1365 -2 -52 -7 -168 -10 -256 -3 -89 -8 -193 -10 -230 -2 -38 -7
-123 -10 -189 -4 -65 -8 -122 -10 -126 -2 -3 198 -5 445 -5 l450 1 5 540 c2
297 6 603 9 680 2 77 7 262 11 410 9 370 20 724 30 935 12 249 16 320 20 405
3 50 7 138 10 196 l6 106 -681 0 -680 0 -19 -66 c-11 -36 -27 -93 -35 -126
-20 -80 -75 -238 -186 -535 -50 -135 -100 -272 -111 -305 -11 -33 -24 -69 -29
-80 -30 -69 -214 -663 -266 -860 -18 -69 -18 -69 -26 -35 -4 19 -10 51 -13 70
-4 19 -8 43 -11 52 -3 10 -7 30 -10 45 -2 16 -7 39 -9 53 -3 14 -7 36 -10 50
-3 14 -9 48 -15 75 -5 28 -12 61 -14 75 -8 43 -43 211 -60 287 -27 123 -162
650 -206 803 -12 41 -47 192 -54 235 -11 61 -35 211 -38 235 l-3 25 -667 1
c-368 1 -668 -2 -669 -5z"/>
<path d="M10714 11521 c-1 -49 -15 -263 -29 -449 -3 -39 -8 -107 -10 -150 -3
-42 -7 -113 -10 -157 -3 -44 -8 -107 -10 -140 -2 -33 -7 -98 -10 -145 -3 -47
-8 -101 -10 -120 -4 -47 -16 -185 -20 -239 -6 -73 -16 -185 -20 -211 -2 -14
-7 -68 -10 -120 -3 -52 -8 -106 -10 -120 -2 -14 -7 -61 -10 -105 -4 -44 -8
-96 -10 -115 -2 -19 -6 -73 -9 -120 -4 -47 -9 -96 -11 -110 -2 -14 -7 -60 -10
-103 -3 -42 -8 -96 -10 -120 -2 -23 -6 -73 -9 -112 -4 -38 -8 -86 -11 -105 -2
-19 -7 -57 -10 -85 -3 -27 -7 -66 -10 -85 -2 -19 -7 -57 -10 -85 -3 -27 -7
-61 -10 -75 -2 -14 -7 -52 -10 -85 -4 -33 -7 -64 -8 -70 -1 -7 140 -10 426
-11 l427 -1 1 56 c2 148 12 386 24 551 2 30 7 107 10 170 3 63 8 140 10 170 5
65 14 219 20 345 13 256 24 427 30 470 2 17 7 66 10 110 3 44 8 94 10 110 2
17 7 66 11 110 3 44 8 89 9 100 1 11 3 42 4 69 1 49 12 56 18 13 3 -19 23
-126 39 -206 3 -13 43 -179 90 -370 69 -281 206 -870 245 -1056 5 -22 10 -49
13 -60 91 -412 128 -570 132 -575 10 -10 894 -7 894 3 0 5 112 350 249 766
224 679 262 794 266 811 1 3 4 12 8 20 3 8 38 116 77 240 40 124 92 284 115
355 l43 130 2 -105 c4 -261 -5 -619 -34 -1410 -3 -69 -8 -199 -11 -290 -3 -91
-8 -187 -10 -215 -2 -27 -7 -109 -10 -181 l-7 -131 449 0 448 0 0 436 c1 447
7 762 30 1566 10 352 24 672 51 1156 l6 116 -681 0 c-375 0 -681 -1 -681 -2 0
-1 -22 -78 -49 -172 -40 -138 -195 -581 -243 -693 -51 -122 -205 -590 -303
-925 -41 -137 -74 -247 -74 -244 -1 4 -6 31 -11 60 -6 30 -13 70 -16 89 -3 19
-22 114 -41 210 -19 96 -37 186 -40 200 -29 158 -75 344 -230 935 -51 193 -47
176 -73 315 -18 99 -33 192 -33 216 0 7 -199 11 -671 11 l-671 0 -1 -36z"/>
</g>
</svg>
